# xmcd
#
# Track frame offsets: 
#        150
#        20074
#        36312
#        51624
#        71406
#        104007
#        123989
#
# Disc length: 1918 seconds
#
# Revision: 0
# Processed by: cddbd v1.5.2PL0 Copyright (c) Steve Scherf et al.
# Submitted via: ExactAudioCopy v0.95a5
#
DISCID=68077c07
DTITLE=Cheap Tobaco - Cheap Tobaco
DYEAR=2011
DGENRE=Blues
TTITLE0=Wedrowka
TTITLE1=Beside
TTITLE2=He's The One
TTITLE3=Aniol stoz
TTITLE4=Ballada o Tomie Boley
TTITLE5=Grandma's hands
TTITLE6=Wedrowka
EXTD=
EXTT0=
EXTT1=
EXTT2=
EXTT3=
EXTT4=
EXTT5=
EXTT6=
PLAYORDER=
